<?xml version="1.0" standalone="no"?>
<!DOCTYPE svg PUBLIC "-//W3C//DTD SVG 20010904//EN"
 "http://www.w3.org/TR/2001/REC-SVG-20010904/DTD/svg10.dtd">
<svg version="1.0" xmlns="http://www.w3.org/2000/svg"
 width="1920.000000pt" height="1080.000000pt" viewBox="0 0 1920.000000 1080.000000"
 preserveAspectRatio="xMidYMid meet">
<metadata>
Created by potrace 1.15, written by Peter Selinger 2001-2017
</metadata>
<g transform="translate(0.000000,1080.000000) scale(0.100000,-0.100000)"
fill="#000000" stroke="none">
<path d="M9733 7841 c-30 -19 -31 -20 -21 -73 16 -94 69 -140 137 -119 50 15
81 50 97 111 17 67 5 107 -27 89 -16 -8 -23 -8 -29 0 -3 7 -14 9 -22 6 -13 -5
-15 -17 -11 -60 5 -48 4 -53 -16 -60 -47 -15 -68 43 -31 83 19 20 26 42 14 42
-3 0 -15 -5 -26 -11 -15 -8 -22 -8 -27 0 -5 7 -17 4 -38 -8z"/>
<path d="M10024 7842 c-14 -9 -18 -121 -5 -154 13 -33 47 -42 71 -18 11 11 31
42 44 69 14 27 30 52 35 56 6 3 8 12 5 20 -4 8 -10 12 -15 9 -5 -3 -15 -2 -21
3 -7 4 -29 8 -49 9 -19 0 -40 3 -45 7 -6 3 -15 3 -20 -1z"/>
<path d="M9532 7831 c-7 -4 -24 -6 -36 -4 -35 7 -89 -24 -81 -45 4 -9 15 -42
25 -72 34 -106 91 -105 129 2 12 34 27 73 33 85 6 13 9 25 7 27 -10 10 -65 15
-77 7z"/>
<path d="M10953 6708 c-5 -7 -22 -56 -37 -108 -55 -186 -92 -283 -106 -275 -4
3 -8 22 -8 44 0 22 -8 60 -16 85 -11 33 -13 53 -6 71 14 38 12 92 -5 125 -18
34 -91 66 -130 56 -66 -17 -98 -91 -76 -177 11 -42 10 -51 -9 -88 -21 -42 -27
-43 -62 -13 -16 13 -17 28 -12 109 7 125 1 153 -35 153 -36 0 -50 -17 -104
-125 -64 -130 -80 -155 -99 -155 -35 0 -45 35 -41 138 5 125 1 142 -36 142
-35 0 -49 -16 -90 -105 -32 -69 -99 -170 -107 -162 -8 7 -27 121 -26 151 2 42
-22 81 -65 106 -31 18 -44 20 -78 13 -33 -7 -46 -17 -72 -57 -28 -41 -33 -57
-33 -106 0 -66 12 -106 41 -133 26 -25 24 -34 -11 -40 -26 -6 -30 -11 -30 -37
0 -71 55 -122 124 -116 46 3 87 42 117 110 22 51 23 52 41 34 12 -12 33 -18
61 -18 58 0 79 -17 79 -63 0 -25 6 -40 17 -46 35 -18 71 14 71 66 0 44 20 52
103 44 76 -8 85 -14 91 -60 2 -18 11 -40 19 -48 14 -15 18 -15 40 0 18 12 23
22 19 45 -4 30 21 66 41 59 7 -2 23 -22 37 -46 48 -80 95 -93 175 -51 31 17
59 30 61 30 2 0 4 -9 4 -19 0 -14 9 -21 31 -26 38 -9 46 -1 73 67 17 43 27 55
58 66 47 18 89 1 101 -43 20 -67 31 -80 71 -83 l39 -3 -7 42 c-8 47 -26 112
-58 204 -11 33 -24 78 -28 100 -13 61 -46 132 -69 144 -26 14 -46 14 -58 -1z"/>
<path d="M7903 6660 c-41 -6 -57 -14 -59 -28 -1 -10 -22 -54 -34 -72 -15 -23
-33 -74 -31 -87 1 -7 -3 -13 -10 -13 -6 0 -9 -7 -6 -15 4 -8 2 -17 -4 -21 -6
-3 -8 -12 -5 -19 3 -8 1 -15 -3 -17 -5 -2 -11 -16 -15 -33 l-6 -30 72 0 73 0
17 37 c24 51 67 71 134 66 61 -5 94 -28 94 -65 0 -56 -42 -88 -132 -101 -52
-7 -53 -8 -59 -47 -4 -22 -6 -60 -6 -85 l2 -45 57 -7 c73 -9 92 -20 108 -57
30 -74 -18 -141 -103 -141 -69 0 -127 58 -127 128 0 46 -18 54 -112 47 -45 -3
-87 -10 -92 -15 -4 -4 -10 -34 -12 -67 -2 -32 -9 -59 -14 -61 -6 -2 -6 -11 1
-23 5 -11 7 -25 3 -31 -5 -7 -9 -27 -11 -45 -3 -25 1 -35 19 -44 13 -7 39 -26
59 -44 38 -34 133 -71 209 -81 25 -3 88 -1 140 5 105 13 207 55 268 110 18 17
37 31 42 31 4 0 12 -28 17 -62 l8 -63 140 0 140 0 7 140 c3 77 8 173 9 212 2
55 5 70 14 63 13 -11 51 -137 85 -278 33 -141 29 -137 140 -138 96 -1 130 10
130 41 0 13 26 103 42 145 6 14 24 68 41 120 18 52 37 95 42 95 13 0 22 -200
13 -290 -12 -111 -19 -106 145 -103 l142 3 6 40 c10 59 10 898 1 913 -7 9 -52
12 -193 10 l-184 -3 -22 -45 c-12 -25 -46 -125 -75 -222 -29 -98 -58 -178 -64
-178 -6 0 -19 26 -28 58 -9 31 -26 86 -37 122 -11 36 -28 103 -39 150 -12 47
-27 91 -35 99 -11 11 -52 14 -200 14 -196 -1 -215 -5 -215 -47 0 -45 -19 -46
-77 -5 -103 72 -252 101 -410 79z"/>
<path d="M11938 5995 c-2 -3 -32 -5 -66 -6 -71 -2 -100 -21 -67 -45 44 -30 45
-34 45 -124 0 -91 9 -112 36 -89 11 9 14 32 13 97 -2 74 0 86 17 99 10 8 27
12 37 9 23 -6 32 16 17 43 -10 20 -22 26 -32 16z"/>
<path d="M10805 5970 c-35 -23 -53 -67 -54 -133 -2 -115 83 -168 170 -106 34
24 42 24 64 -1 22 -24 72 -26 104 -4 22 16 25 15 62 -5 21 -12 43 -20 48 -17
5 3 44 8 87 12 44 3 83 9 89 14 6 5 21 2 35 -5 36 -20 77 -18 97 5 22 26 45
25 69 -1 16 -17 26 -20 64 -14 25 4 48 10 51 13 4 4 10 62 13 130 6 118 6 122
-13 122 -13 0 -27 -12 -36 -30 -9 -17 -24 -30 -34 -30 -10 0 -31 -10 -46 -22
-22 -17 -31 -19 -44 -10 -46 33 -61 36 -107 19 l-44 -16 -14 28 c-8 15 -21 33
-29 40 -12 10 -17 7 -28 -18 -16 -36 -33 -45 -59 -31 -30 16 -57 12 -89 -16
l-31 -26 -31 26 c-17 14 -39 26 -50 26 -29 0 -79 -28 -79 -45 0 -8 -22 -38
-50 -66 -40 -42 -54 -50 -74 -45 -31 8 -49 53 -40 102 3 22 11 45 17 52 15 18
48 14 73 -9 25 -23 54 -20 54 6 0 9 -13 30 -29 46 -35 34 -73 38 -116 9z"/>
<path d="M9749 5966 c-22 -11 -24 -18 -26 -101 -1 -50 -4 -99 -7 -109 -9 -33
11 -56 49 -56 43 0 112 27 119 46 9 23 31 16 54 -16 19 -25 30 -30 62 -30 31
0 43 5 56 25 9 14 21 25 27 25 5 0 20 -11 33 -25 36 -39 134 -31 134 11 0 13
4 12 18 -5 26 -32 100 -39 131 -12 21 19 25 19 47 4 20 -13 27 -13 40 -2 13
10 24 9 65 -5 45 -17 51 -17 74 -2 47 31 58 142 17 179 -34 31 -66 31 -100 -1
-30 -28 -33 -29 -42 -12 -5 9 -7 20 -3 23 11 12 -8 77 -22 77 -15 0 -31 -43
-27 -71 4 -22 -27 -33 -47 -16 -9 7 -28 18 -44 25 -15 6 -32 23 -37 37 -6 15
-15 23 -23 19 -19 -7 -38 -50 -31 -69 7 -17 -7 -20 -22 -5 -6 6 -18 8 -27 4
-13 -5 -17 -19 -17 -63 0 -31 -4 -62 -9 -70 -13 -20 -41 -6 -42 21 -5 98 -18
127 -42 94 -13 -18 -15 -18 -53 4 -45 26 -76 23 -111 -9 -24 -23 -36 -15 -47
30 -11 48 -97 80 -147 55z"/>
<path d="M11213 4542 c-20 -21 -23 -505 -3 -526 11 -11 76 27 72 43 -1 6 14
19 33 28 22 10 34 22 31 30 -4 8 8 20 30 30 20 10 33 22 30 30 -3 7 8 20 24
28 17 9 30 22 30 30 0 8 9 19 21 25 11 7 18 18 15 25 -3 8 0 15 5 17 7 2 7 12
0 31 -6 15 -10 66 -10 114 1 49 1 94 0 101 -1 18 -259 12 -278 -6z"/>
<path d="M10621 4498 l-31 -33 -25 28 c-20 21 -35 27 -66 27 -22 0 -49 -5 -59
-10 -13 -7 -21 -7 -25 0 -3 5 -30 10 -59 10 -39 0 -60 -6 -80 -21 -26 -21 -27
-21 -47 -3 -20 18 -21 18 -34 1 -16 -22 -21 -21 -52 3 -32 25 -77 26 -102 1
-23 -23 -36 -107 -22 -143 21 -55 88 -70 127 -27 26 29 34 23 34 -26 0 -33 5
-47 19 -54 22 -12 31 2 31 48 0 41 17 53 49 32 14 -9 35 -21 46 -27 11 -6 24
-20 30 -32 5 -12 18 -22 27 -22 17 0 22 15 19 52 -2 21 18 33 31 20 8 -8 17
-8 30 -1 15 8 18 20 17 63 -2 61 4 76 32 76 15 0 19 -8 20 -37 2 -38 4 -67 7
-90 3 -18 22 -16 43 3 17 15 20 15 45 -5 34 -27 68 -27 106 0 16 12 31 20 32
18 2 -2 11 -18 19 -36 28 -53 44 -63 101 -63 31 0 58 5 64 13 12 14 19 212 8
245 -5 15 -15 22 -34 22 -49 0 -101 -20 -122 -47 l-21 -27 -29 32 c-16 18 -35
32 -42 32 -7 0 -23 3 -34 6 -16 4 -30 -3 -53 -28z"/>
<path d="M9604 4510 c-12 -5 -25 -13 -29 -19 -9 -16 -40 -14 -54 3 -9 10 -29
13 -72 11 -33 -2 -64 -7 -69 -10 -5 -3 -19 -1 -31 6 -16 8 -27 8 -45 -2 -18
-9 -30 -10 -49 -1 -14 7 -34 12 -45 12 -25 0 -82 -49 -74 -63 3 -7 -9 4 -27
23 -30 32 -38 35 -83 33 -27 -1 -53 -6 -57 -10 -12 -13 -14 -242 -2 -254 8 -8
18 -2 34 20 12 17 31 31 40 31 10 0 32 12 49 27 26 22 35 24 49 15 46 -34 61
-36 107 -19 l45 16 15 -34 c17 -40 41 -45 53 -11 11 29 36 39 61 26 10 -6 33
-10 50 -10 24 0 35 7 48 30 l17 29 31 -30 c29 -28 35 -30 75 -22 34 7 47 15
59 38 8 17 34 49 56 73 66 69 114 53 114 -37 0 -92 -44 -125 -102 -75 l-33 27
-3 -23 c-5 -34 29 -74 66 -78 73 -7 122 53 122 150 0 118 -88 179 -164 113
-35 -30 -43 -31 -70 -6 -27 24 -56 32 -82 21z"/>
<path d="M8023 4490 c-26 -11 -27 -14 -13 -40 6 -11 17 -17 25 -14 9 4 15 0
15 -10 0 -9 -5 -16 -10 -16 -6 0 1 -23 16 -52 l26 -52 18 24 c19 25 40 20 40
-11 0 -12 7 -19 19 -19 15 0 19 11 25 62 7 71 25 99 51 78 12 -10 15 -28 14
-72 -1 -32 1 -61 5 -65 10 -10 42 13 38 28 -4 18 8 69 18 69 13 0 21 -32 11
-44 -7 -8 -6 -20 2 -36 19 -37 81 -40 108 -6 l20 26 22 -21 c34 -31 62 -34
102 -9 27 17 39 19 49 11 22 -18 33 7 40 92 6 82 0 92 -43 65 -14 -9 -23 -8
-42 5 -28 20 -73 22 -91 4 -23 -23 -42 -25 -67 -5 -27 20 -49 17 -94 -14 l-28
-20 -24 26 c-25 28 -34 30 -83 20 -30 -6 -49 -33 -44 -61 5 -25 -17 -12 -38
22 -12 19 -25 35 -30 35 -5 0 -14 2 -22 4 -7 3 -23 1 -35 -4z"/>
<path d="M8772 4488 c-8 -8 -12 -45 -12 -99 0 -113 -14 -128 -108 -120 -18 1
-23 -2 -20 -15 3 -20 47 -27 157 -25 67 1 96 17 64 36 -48 29 -55 44 -53 123
3 120 1 129 -28 100z"/>
<path d="M10832 4009 c-52 -11 -112 -80 -112 -129 0 -9 -3 -20 -7 -24 -4 -4
-8 -13 -8 -19 0 -26 -20 -20 -25 7 -4 22 -12 32 -35 38 -16 4 -38 5 -47 2 -35
-11 -58 13 -58 61 0 39 -3 45 -25 51 -34 8 -55 -11 -55 -52 0 -21 -8 -40 -21
-53 -19 -17 -31 -19 -93 -14 -39 3 -73 8 -76 10 -3 3 -10 26 -15 51 -7 32 -16
48 -28 50 -26 5 -47 -16 -47 -49 0 -30 -23 -59 -46 -59 -7 0 -23 18 -33 39
-27 52 -45 68 -88 80 -94 26 -182 -89 -152 -201 7 -24 11 -61 11 -83 -3 -122
-1 -140 16 -169 10 -17 28 -35 40 -41 12 -5 22 -12 22 -16 0 -7 92 5 108 14 6
5 12 16 12 25 0 9 7 37 16 61 13 37 13 52 3 92 -11 43 -10 53 6 87 14 28 24
38 37 34 37 -9 43 -31 43 -161 0 -107 2 -125 15 -122 8 3 25 5 38 5 12 1 22 6
22 12 0 7 7 14 15 18 8 3 15 11 15 18 0 26 107 219 128 232 5 3 17 -3 27 -15
14 -14 20 -41 23 -103 4 -79 6 -84 28 -89 27 -5 128 38 120 52 -9 14 68 151
85 151 5 0 9 -18 9 -39 0 -75 1 -75 116 -18 57 28 104 57 104 63 0 22 -32 38
-71 35 -45 -3 -59 15 -41 55 18 37 59 33 77 -9 26 -63 93 -40 81 27 -13 69
-69 109 -134 95z"/>
<path d="M9481 3972 c-9 -18 22 -135 87 -327 9 -27 19 -74 22 -104 5 -53 6
-54 39 -57 40 -5 81 18 81 45 0 16 81 269 123 385 20 55 12 76 -28 76 -32 0
-34 -3 -49 -54 -21 -72 -37 -86 -95 -86 -57 0 -79 19 -88 76 -3 22 -10 45 -16
52 -15 19 -65 15 -76 -6z"/>
</g>
</svg>
